<mxfile host="65bd71144e" modified="2021-02-16T07:41:56.993Z" agent="5.0 (Macintosh; Intel Mac OS X 10_13_6) AppleWebKit/537.36 (KHTML, like Gecko) Code/1.53.2 Chrome/87.0.4280.141 Electron/11.2.1 Safari/537.36" etag="GAWVAkNiEMbuA9d08mMD" version="14.2.4" type="embed">
    <diagram id="3KAkqy-UXoC5Jie5XoUD" name="第 1 页">
        <mxGraphModel dx="524" dy="548" grid="1" gridSize="10" guides="1" tooltips="1" connect="1" arrows="1" fold="1" page="1" pageScale="1" pageWidth="827" pageHeight="1169" background="none" math="0" shadow="0">
            <root>
                <mxCell id="0"/>
                <mxCell id="1" parent="0"/>
                <mxCell id="57" style="edgeStyle=orthogonalEdgeStyle;rounded=0;orthogonalLoop=1;jettySize=auto;html=1;exitX=0.5;exitY=1;exitDx=0;exitDy=0;entryX=0;entryY=0.5;entryDx=0;entryDy=0;" parent="1" source="56" edge="1">
                    <mxGeometry relative="1" as="geometry">
                        <Array as="points">
                            <mxPoint x="270" y="650"/>
                            <mxPoint x="90" y="650"/>
                            <mxPoint x="90" y="400"/>
                        </Array>
                        <mxPoint x="210" y="400" as="targetPoint"/>
                    </mxGeometry>
                </mxCell>
                <mxCell id="62" value="开始" style="rounded=1;whiteSpace=wrap;html=1;" vertex="1" parent="1">
                    <mxGeometry x="180" y="10" width="120" height="60" as="geometry"/>
                </mxCell>
                <mxCell id="63" value="" style="endArrow=classic;html=1;" edge="1" parent="1">
                    <mxGeometry width="50" height="50" relative="1" as="geometry">
                        <mxPoint x="239.5" y="70" as="sourcePoint"/>
                        <mxPoint x="240" y="110" as="targetPoint"/>
                        <Array as="points">
                            <mxPoint x="239.5" y="90"/>
                        </Array>
                    </mxGeometry>
                </mxCell>
                <mxCell id="65" style="edgeStyle=orthogonalEdgeStyle;rounded=0;orthogonalLoop=1;jettySize=auto;html=1;exitX=0.5;exitY=1;exitDx=0;exitDy=0;" edge="1" parent="1" source="64" target="66">
                    <mxGeometry relative="1" as="geometry">
                        <mxPoint x="240" y="220" as="targetPoint"/>
                    </mxGeometry>
                </mxCell>
                <mxCell id="64" value="输入分数" style="shape=parallelogram;perimeter=parallelogramPerimeter;whiteSpace=wrap;html=1;fixedSize=1;" vertex="1" parent="1">
                    <mxGeometry x="180" y="110" width="120" height="60" as="geometry"/>
                </mxCell>
                <mxCell id="67" style="edgeStyle=orthogonalEdgeStyle;rounded=0;orthogonalLoop=1;jettySize=auto;html=1;exitX=0.5;exitY=1;exitDx=0;exitDy=0;" edge="1" parent="1" source="66">
                    <mxGeometry relative="1" as="geometry">
                        <mxPoint x="240" y="320" as="targetPoint"/>
                        <Array as="points">
                            <mxPoint x="240" y="320"/>
                        </Array>
                    </mxGeometry>
                </mxCell>
                <mxCell id="70" style="edgeStyle=orthogonalEdgeStyle;rounded=0;orthogonalLoop=1;jettySize=auto;html=1;exitX=0;exitY=0.5;exitDx=0;exitDy=0;" edge="1" parent="1" source="66">
                    <mxGeometry relative="1" as="geometry">
                        <mxPoint x="130" y="250" as="targetPoint"/>
                    </mxGeometry>
                </mxCell>
                <mxCell id="66" value="0 &amp;lt;= 分数 &amp;lt; 60" style="rhombus;whiteSpace=wrap;html=1;" vertex="1" parent="1">
                    <mxGeometry x="170" y="210" width="140" height="80" as="geometry"/>
                </mxCell>
                <mxCell id="68" value="False" style="text;html=1;align=center;verticalAlign=middle;resizable=0;points=[];autosize=1;" vertex="1" parent="1">
                    <mxGeometry x="260" y="290" width="40" height="20" as="geometry"/>
                </mxCell>
                <mxCell id="71" value="True" style="text;html=1;align=center;verticalAlign=middle;resizable=0;points=[];autosize=1;" vertex="1" parent="1">
                    <mxGeometry x="140" y="210" width="40" height="20" as="geometry"/>
                </mxCell>
                <mxCell id="75" style="edgeStyle=orthogonalEdgeStyle;rounded=0;orthogonalLoop=1;jettySize=auto;html=1;exitX=0.5;exitY=1;exitDx=0;exitDy=0;" edge="1" parent="1" source="72">
                    <mxGeometry relative="1" as="geometry">
                        <mxPoint x="240" y="320" as="targetPoint"/>
                    </mxGeometry>
                </mxCell>
                <mxCell id="72" value="输出“D”" style="shape=parallelogram;perimeter=parallelogramPerimeter;whiteSpace=wrap;html=1;fixedSize=1;" vertex="1" parent="1">
                    <mxGeometry x="20" y="210" width="120" height="60" as="geometry"/>
                </mxCell>
                <mxCell id="79" style="edgeStyle=orthogonalEdgeStyle;rounded=0;orthogonalLoop=1;jettySize=auto;html=1;exitX=0;exitY=0.5;exitDx=0;exitDy=0;" edge="1" parent="1" source="76" target="80">
                    <mxGeometry relative="1" as="geometry">
                        <mxPoint x="130" y="360" as="targetPoint"/>
                    </mxGeometry>
                </mxCell>
                <mxCell id="90" style="edgeStyle=orthogonalEdgeStyle;rounded=0;orthogonalLoop=1;jettySize=auto;html=1;exitX=0.5;exitY=1;exitDx=0;exitDy=0;" edge="1" parent="1" source="76">
                    <mxGeometry relative="1" as="geometry">
                        <mxPoint x="240" y="460" as="targetPoint"/>
                    </mxGeometry>
                </mxCell>
                <mxCell id="76" value="60 &amp;lt;= 分数 &amp;lt; 80" style="rhombus;whiteSpace=wrap;html=1;" vertex="1" parent="1">
                    <mxGeometry x="170" y="320" width="140" height="80" as="geometry"/>
                </mxCell>
                <mxCell id="78" value="False" style="text;html=1;align=center;verticalAlign=middle;resizable=0;points=[];autosize=1;" vertex="1" parent="1">
                    <mxGeometry x="250" y="410" width="40" height="20" as="geometry"/>
                </mxCell>
                <mxCell id="98" style="edgeStyle=orthogonalEdgeStyle;rounded=0;orthogonalLoop=1;jettySize=auto;html=1;exitX=0.5;exitY=1;exitDx=0;exitDy=0;" edge="1" parent="1" source="80">
                    <mxGeometry relative="1" as="geometry">
                        <mxPoint x="240" y="460" as="targetPoint"/>
                    </mxGeometry>
                </mxCell>
                <mxCell id="80" value="输入&quot;C&quot;" style="shape=parallelogram;perimeter=parallelogramPerimeter;whiteSpace=wrap;html=1;fixedSize=1;" vertex="1" parent="1">
                    <mxGeometry x="20" y="330" width="120" height="60" as="geometry"/>
                </mxCell>
                <mxCell id="97" value="True" style="text;html=1;align=center;verticalAlign=middle;resizable=0;points=[];autosize=1;" vertex="1" parent="1">
                    <mxGeometry x="130" y="330" width="40" height="20" as="geometry"/>
                </mxCell>
                <mxCell id="100" style="edgeStyle=orthogonalEdgeStyle;rounded=0;orthogonalLoop=1;jettySize=auto;html=1;exitX=0;exitY=0.5;exitDx=0;exitDy=0;" edge="1" parent="1" source="99" target="101">
                    <mxGeometry relative="1" as="geometry">
                        <mxPoint x="130" y="500" as="targetPoint"/>
                    </mxGeometry>
                </mxCell>
                <mxCell id="102" style="edgeStyle=orthogonalEdgeStyle;rounded=0;orthogonalLoop=1;jettySize=auto;html=1;exitX=0.5;exitY=1;exitDx=0;exitDy=0;" edge="1" parent="1" source="99">
                    <mxGeometry relative="1" as="geometry">
                        <mxPoint x="240" y="580" as="targetPoint"/>
                    </mxGeometry>
                </mxCell>
                <mxCell id="99" value="80 &amp;lt;= 分数 &amp;lt; 90" style="rhombus;whiteSpace=wrap;html=1;" vertex="1" parent="1">
                    <mxGeometry x="170" y="460" width="140" height="80" as="geometry"/>
                </mxCell>
                <mxCell id="105" style="edgeStyle=orthogonalEdgeStyle;rounded=0;orthogonalLoop=1;jettySize=auto;html=1;exitX=0.5;exitY=1;exitDx=0;exitDy=0;" edge="1" parent="1" source="101">
                    <mxGeometry relative="1" as="geometry">
                        <mxPoint x="240" y="580" as="targetPoint"/>
                    </mxGeometry>
                </mxCell>
                <mxCell id="101" value="输入&quot;B&quot;" style="shape=parallelogram;perimeter=parallelogramPerimeter;whiteSpace=wrap;html=1;fixedSize=1;" vertex="1" parent="1">
                    <mxGeometry x="30" y="470" width="120" height="60" as="geometry"/>
                </mxCell>
                <mxCell id="103" value="False" style="text;html=1;align=center;verticalAlign=middle;resizable=0;points=[];autosize=1;" vertex="1" parent="1">
                    <mxGeometry x="240" y="550" width="40" height="20" as="geometry"/>
                </mxCell>
                <mxCell id="106" value="True" style="text;html=1;align=center;verticalAlign=middle;resizable=0;points=[];autosize=1;" vertex="1" parent="1">
                    <mxGeometry x="150" y="470" width="40" height="20" as="geometry"/>
                </mxCell>
                <mxCell id="109" style="edgeStyle=orthogonalEdgeStyle;rounded=0;orthogonalLoop=1;jettySize=auto;html=1;exitX=0.5;exitY=1;exitDx=0;exitDy=0;" edge="1" parent="1" source="108">
                    <mxGeometry relative="1" as="geometry">
                        <mxPoint x="240" y="700" as="targetPoint"/>
                    </mxGeometry>
                </mxCell>
                <mxCell id="110" style="edgeStyle=orthogonalEdgeStyle;rounded=0;orthogonalLoop=1;jettySize=auto;html=1;exitX=0;exitY=0.5;exitDx=0;exitDy=0;" edge="1" parent="1" source="108" target="111">
                    <mxGeometry relative="1" as="geometry">
                        <mxPoint x="120" y="623" as="targetPoint"/>
                    </mxGeometry>
                </mxCell>
                <mxCell id="108" value="90 &amp;lt;= 分数 &amp;lt; 100" style="rhombus;whiteSpace=wrap;html=1;" vertex="1" parent="1">
                    <mxGeometry x="170" y="585" width="140" height="75" as="geometry"/>
                </mxCell>
                <mxCell id="113" style="edgeStyle=orthogonalEdgeStyle;rounded=0;orthogonalLoop=1;jettySize=auto;html=1;exitX=0.5;exitY=1;exitDx=0;exitDy=0;" edge="1" parent="1" source="111">
                    <mxGeometry relative="1" as="geometry">
                        <mxPoint x="240" y="700" as="targetPoint"/>
                    </mxGeometry>
                </mxCell>
                <mxCell id="111" value="输入&quot;A&quot;" style="shape=parallelogram;perimeter=parallelogramPerimeter;whiteSpace=wrap;html=1;fixedSize=1;" vertex="1" parent="1">
                    <mxGeometry x="30" y="592.5" width="120" height="60" as="geometry"/>
                </mxCell>
                <mxCell id="112" value="False" style="text;html=1;align=center;verticalAlign=middle;resizable=0;points=[];autosize=1;" vertex="1" parent="1">
                    <mxGeometry x="250" y="670" width="40" height="20" as="geometry"/>
                </mxCell>
                <mxCell id="114" value="True" style="text;html=1;align=center;verticalAlign=middle;resizable=0;points=[];autosize=1;" vertex="1" parent="1">
                    <mxGeometry x="150" y="575" width="40" height="20" as="geometry"/>
                </mxCell>
                <mxCell id="116" style="edgeStyle=orthogonalEdgeStyle;rounded=0;orthogonalLoop=1;jettySize=auto;html=1;" edge="1" parent="1" source="115">
                    <mxGeometry relative="1" as="geometry">
                        <mxPoint x="240" y="830" as="targetPoint"/>
                    </mxGeometry>
                </mxCell>
                <mxCell id="119" style="edgeStyle=orthogonalEdgeStyle;rounded=0;orthogonalLoop=1;jettySize=auto;html=1;exitX=0;exitY=0.5;exitDx=0;exitDy=0;" edge="1" parent="1" source="115" target="118">
                    <mxGeometry relative="1" as="geometry"/>
                </mxCell>
                <mxCell id="115" value="&amp;nbsp;分数 == 100" style="rhombus;whiteSpace=wrap;html=1;" vertex="1" parent="1">
                    <mxGeometry x="170" y="700" width="140" height="80" as="geometry"/>
                </mxCell>
                <mxCell id="122" style="edgeStyle=orthogonalEdgeStyle;rounded=0;orthogonalLoop=1;jettySize=auto;html=1;exitX=0.5;exitY=1;exitDx=0;exitDy=0;" edge="1" parent="1" source="118">
                    <mxGeometry relative="1" as="geometry">
                        <mxPoint x="240" y="830" as="targetPoint"/>
                    </mxGeometry>
                </mxCell>
                <mxCell id="118" value="输入&quot;S&quot;" style="shape=parallelogram;perimeter=parallelogramPerimeter;whiteSpace=wrap;html=1;fixedSize=1;" vertex="1" parent="1">
                    <mxGeometry x="30" y="710" width="120" height="60" as="geometry"/>
                </mxCell>
                <mxCell id="120" value="False" style="text;html=1;align=center;verticalAlign=middle;resizable=0;points=[];autosize=1;" vertex="1" parent="1">
                    <mxGeometry x="250" y="780" width="40" height="20" as="geometry"/>
                </mxCell>
                <mxCell id="121" value="True" style="text;html=1;align=center;verticalAlign=middle;resizable=0;points=[];autosize=1;" vertex="1" parent="1">
                    <mxGeometry x="150" y="700" width="40" height="20" as="geometry"/>
                </mxCell>
                <mxCell id="124" style="edgeStyle=orthogonalEdgeStyle;rounded=0;orthogonalLoop=1;jettySize=auto;html=1;exitX=0.5;exitY=1;exitDx=0;exitDy=0;" edge="1" parent="1" source="123">
                    <mxGeometry relative="1" as="geometry">
                        <mxPoint x="240" y="950" as="targetPoint"/>
                    </mxGeometry>
                </mxCell>
                <mxCell id="126" style="edgeStyle=orthogonalEdgeStyle;rounded=0;orthogonalLoop=1;jettySize=auto;html=1;exitX=0;exitY=0.5;exitDx=0;exitDy=0;" edge="1" parent="1" source="123" target="127">
                    <mxGeometry relative="1" as="geometry">
                        <mxPoint x="140" y="870" as="targetPoint"/>
                    </mxGeometry>
                </mxCell>
                <mxCell id="123" value="分数 == 180" style="rhombus;whiteSpace=wrap;html=1;" vertex="1" parent="1">
                    <mxGeometry x="170" y="830" width="140" height="80" as="geometry"/>
                </mxCell>
                <mxCell id="125" value="False" style="text;html=1;align=center;verticalAlign=middle;resizable=0;points=[];autosize=1;" vertex="1" parent="1">
                    <mxGeometry x="250" y="920" width="40" height="20" as="geometry"/>
                </mxCell>
                <mxCell id="128" style="edgeStyle=orthogonalEdgeStyle;rounded=0;orthogonalLoop=1;jettySize=auto;html=1;exitX=0.5;exitY=1;exitDx=0;exitDy=0;" edge="1" parent="1" source="127">
                    <mxGeometry relative="1" as="geometry">
                        <mxPoint x="240" y="950" as="targetPoint"/>
                    </mxGeometry>
                </mxCell>
                <mxCell id="127" value="输入&quot;SSS++&quot;" style="shape=parallelogram;perimeter=parallelogramPerimeter;whiteSpace=wrap;html=1;fixedSize=1;" vertex="1" parent="1">
                    <mxGeometry x="30" y="840" width="120" height="60" as="geometry"/>
                </mxCell>
                <mxCell id="129" value="True" style="text;html=1;align=center;verticalAlign=middle;resizable=0;points=[];autosize=1;" vertex="1" parent="1">
                    <mxGeometry x="150" y="830" width="40" height="20" as="geometry"/>
                </mxCell>
                <mxCell id="130" value="结束" style="rounded=1;whiteSpace=wrap;html=1;" vertex="1" parent="1">
                    <mxGeometry x="180" y="950" width="120" height="60" as="geometry"/>
                </mxCell>
            </root>
        </mxGraphModel>
    </diagram>
</mxfile>